<?xml version="1.0" encoding="UTF-8" standalone="no"?><!DOCTYPE svg PUBLIC "-//W3C//DTD SVG 1.1//EN" "http://www.w3.org/Graphics/SVG/1.1/DTD/svg11.dtd"><svg width="100%" height="100%" viewBox="0 0 492 492" version="1.1" xmlns="http://www.w3.org/2000/svg" xmlns:xlink="http://www.w3.org/1999/xlink" xml:space="preserve" xmlns:serif="http://www.serif.com/" style="fill-rule:evenodd;clip-rule:evenodd;stroke-linejoin:round;stroke-miterlimit:1.41421;"><rect id="_-Rectangle-" serif:id="(Rectangle)" x="-1.135" y="-1.518" width="495.17" height="495.807" style="fill:#fff;"/><g id="C"><path d="M306.077,164.798c-28.549,-28.549 -74.904,-28.549 -103.453,0l-49.274,49.274c-28.548,28.548 -28.548,74.903 0,103.452l49.274,49.274c28.549,28.548 74.904,28.548 103.453,0l49.274,-49.274c28.548,-28.549 28.548,-74.904 0,-103.452l-49.274,-49.274Z" style="fill:#ffa116;"/><path d="M320.008,178.376l-87.419,87.418l87.419,87.418l87.418,-87.418l-87.418,-87.418Z" style="fill:#fff;"/><path id="C1" serif:id="C" d="M290.151,199.768c-7.024,-7.023 -7.024,-18.428 0,-25.451c7.023,-7.023 18.427,-7.023 25.451,0l20.37,20.37c7.023,7.023 7.023,18.427 0,25.451c-7.024,7.023 -18.428,7.023 -25.451,0l-20.37,-20.37Z" style="fill:#ffa116;"/><path id="C2" serif:id="C" d="M310.504,311.451c7.024,-7.023 18.428,-7.023 25.451,0c7.023,7.024 7.023,18.428 0,25.451l-20.363,20.363c-7.023,7.023 -18.427,7.023 -25.451,0c-7.023,-7.023 -7.023,-18.428 0,-25.451l20.363,-20.363Z" style="fill:#ffa116;"/></g><g id="L"><path id="L-cn" serif:id="L cn" d="M306.071,164.792c-28.545,-28.545 -74.896,-28.545 -103.441,0l-49.285,49.285c-28.546,28.546 -28.546,74.896 0,103.441l49.285,49.286c28.545,28.545 74.896,28.545 103.441,0l49.285,-49.286c28.546,-28.545 28.546,-74.895 0,-103.441l-49.285,-49.285Z" style="fill:url(#_Linear1);"/><path id="L-bot" serif:id="L bot" d="M160.271,324.438c-7.023,-7.023 -7.023,-18.427 0,-25.451c7.024,-7.023 18.428,-7.023 25.451,0l44.973,44.973c7.023,7.023 7.023,18.427 0,25.45c-7.024,7.024 -18.428,7.024 -25.451,0l-44.973,-44.972Z"/><path id="L-top" serif:id="L top" d="M277.569,89.843c7.023,-7.023 18.428,-7.023 25.451,0c7.023,7.023 7.023,18.428 0,25.451l-116.254,116.254c-7.024,7.023 -18.428,7.023 -25.451,0c-7.023,-7.023 -7.023,-18.428 0,-25.451l116.254,-116.254Z"/></g><path id="Center-Cover" serif:id="Center Cover" d="M280.636,190.246c-14.51,-14.511 -38.072,-14.511 -52.582,0l-49.245,49.245c-14.511,14.51 -14.511,38.072 0,52.582l49.245,49.245c14.51,14.511 38.072,14.511 52.582,0l49.245,-49.245c14.511,-14.51 14.511,-38.072 0,-52.582l-49.245,-49.245Z" style="fill:#fff;"/><path d="M387.777,266.034c0,-9.933 -8.064,-17.998 -17.997,-17.998l-125.314,0c-9.933,0 -17.998,8.065 -17.998,17.998c0,9.933 8.065,17.997 17.998,17.997l125.314,0c9.933,0 17.997,-8.064 17.997,-17.997Z" style="fill:#b3b3b3;"/><defs><linearGradient id="_Linear1" x1="0" y1="0" x2="1" y2="0" gradientUnits="userSpaceOnUse" gradientTransform="matrix(4.03051,1.01711,-1.01711,4.03051,198.68,257.907)"><stop offset="0" style="stop-color:#000;stop-opacity:1"/><stop offset="1" style="stop-color:#000;stop-opacity:0"/></linearGradient></defs></svg>